<?xml version="1.0" encoding="utf-8"?>
<!-- Generator: Adobe Illustrator 21.1.0, SVG Export Plug-In . SVG Version: 6.00 Build 0)  -->
<svg version="1.1" id="Capa_1" xmlns="http://www.w3.org/2000/svg" xmlns:xlink="http://www.w3.org/1999/xlink" x="0px" y="0px"
	 viewBox="0 0 512 512" style="enable-background:new 0 0 512 512;" xml:space="preserve">
<style type="text/css">
	.st0{fill:#FFFFFF;}
	.st1{fill:#CE5757;}
</style>
<rect x="118" y="130" class="st0" width="282" height="245"/>
<g>
	<g id="c142_x">
		<path class="st1" d="M256,0C114.6,0,0,114.6,0,256c0,141.4,114.6,256,256,256c141.4,0,256-114.6,256-256C512,114.6,397.4,0,256,0z
			 M366,325.3L325.3,366c0,0-64.5-69.2-69.3-69.2c-4.7,0-69.3,69.2-69.3,69.2l-40.8-40.7c0,0,69.3-63.6,69.3-69.2
			c0-5.7-69.3-69.3-69.3-69.3l40.8-40.8c0,0,65.1,69.2,69.3,69.2c4.2,0,69.3-69.2,69.3-69.2l40.8,40.8c0,0-69.3,64.5-69.3,69.3
			C296.7,260.7,366,325.3,366,325.3z"/>
	</g>
	<g id="Capa_1_104_">
	</g>
</g>
</svg>
